<?xml version="1.0" encoding="iso-8859-1"?>
<!-- Generator: Adobe Illustrator 19.0.0, SVG Export Plug-In . SVG Version: 6.00 Build 0)  -->
<svg xmlns="http://www.w3.org/2000/svg" xmlns:xlink="http://www.w3.org/1999/xlink" version="1.1" id="Layer_1" x="0px" y="0px" viewBox="0 0 512 512" style="enable-background:new 0 0 512 512;" xml:space="preserve" width="512px" height="512px">
<g>
	<g>
		<path d="M482.702,53.071H393.03V28.987c0-6.471-5.247-11.719-11.719-11.719s-11.719,5.247-11.719,11.719v24.085H267.723V28.987    c0-6.471-5.247-11.719-11.719-11.719c-6.472,0-11.719,5.247-11.719,11.719v24.085H142.41V28.987    c0-6.471-5.247-11.719-11.719-11.719s-11.719,5.247-11.719,11.719v24.085H29.298C13.143,53.072,0,66.215,0,82.37v383.065    c0,16.155,13.143,29.298,29.298,29.298h453.404c16.155,0,29.298-13.143,29.298-29.298V82.368    C512,66.214,498.857,53.071,482.702,53.071z M488.562,465.434c0,3.231-2.629,5.86-5.86,5.86H29.298c-3.231,0-5.86-2.629-5.86-5.86    v-267.86h465.124V465.434z M488.562,174.135H23.438V82.368c0-3.23,2.629-5.86,5.86-5.86h89.674v34.665    c-4.064,3.37-6.654,8.457-6.654,14.148c0,10.148,8.226,18.373,18.373,18.373s18.373-8.226,18.373-18.373    c0-5.692-2.59-10.778-6.654-14.148V76.509h101.875v34.665c-4.064,3.37-6.654,8.457-6.654,14.148    c0,10.148,8.226,18.373,18.373,18.373c10.148,0,18.373-8.226,18.373-18.373c0-5.692-2.59-10.778-6.654-14.148V76.509h101.868    v34.665c-4.064,3.37-6.654,8.457-6.654,14.148c0,10.148,8.226,18.373,18.373,18.373s18.373-8.226,18.373-18.373    c0-5.692-2.59-10.778-6.654-14.148V76.509h89.672c3.231,0,5.86,2.629,5.86,5.86V174.135z" fill="#60676c"/>
	</g>
</g>
<g>
	<g>
		<path d="M413.339,244.045H334.67h-78.669h-78.669h-78.67c-6.472,0-11.719,5.248-11.719,11.719v78.669v78.669    c0,6.471,5.247,11.719,11.719,11.719h78.669h78.669h78.669h78.669c6.472,0,11.719-5.248,11.719-11.719v-78.669v-78.669    C425.058,249.293,419.812,244.045,413.339,244.045z M165.611,401.384H110.38v-55.231h55.231V401.384z M165.611,322.715H110.38    v-55.231h55.231V322.715z M244.28,401.384h-55.231v-55.231h55.231V401.384z M244.28,322.715h-55.231v-55.231h55.231V322.715z     M322.95,401.384h-55.231v-55.231h55.231V401.384z M322.951,322.715H267.72v-55.231h55.231V322.715z M401.62,401.384h-55.231    v-55.231h55.231V401.384z M401.62,322.715h-55.231v-55.231h55.231V322.715z" fill="#60676c"/>
	</g>
</g>
<g>
</g>
<g>
</g>
<g>
</g>
<g>
</g>
<g>
</g>
<g>
</g>
<g>
</g>
<g>
</g>
<g>
</g>
<g>
</g>
<g>
</g>
<g>
</g>
<g>
</g>
<g>
</g>
<g>
</g>
</svg>
