<?xml version="1.0" encoding="iso-8859-1"?>
<!-- Generator: Adobe Illustrator 19.0.0, SVG Export Plug-In . SVG Version: 6.00 Build 0)  -->
<svg xmlns="http://www.w3.org/2000/svg" xmlns:xlink="http://www.w3.org/1999/xlink" version="1.1" id="Layer_1" x="0px" y="0px" viewBox="0 0 512 512" style="enable-background:new 0 0 512 512;" xml:space="preserve" width="512px" height="512px">
<g>
	<g>
		<path d="M92.241,158.941H59.246c-10.531,0-19.099,8.568-19.099,19.099v168.85c0,10.531,8.568,19.099,19.099,19.099h32.995    c10.531,0,19.099-8.568,19.099-19.099V178.04C111.34,167.507,102.773,158.941,92.241,158.941z M85.875,340.524H65.612V184.406    h20.263V340.524z" fill="#60676c"/>
	</g>
</g>
<g>
	<g>
		<path d="M218.265,158.941H185.27c-10.531,0-19.099,8.568-19.099,19.099v168.85c0,10.531,8.568,19.099,19.099,19.099h32.995    c10.531,0,19.099-8.568,19.099-19.099V178.04C237.364,167.507,228.796,158.941,218.265,158.941z M211.899,340.524h-20.263V184.406    h20.263V340.524z" fill="#60676c"/>
	</g>
</g>
<g>
	<g>
		<path d="M440.397,326.196l-43.702-163.099c-2.726-10.172-13.221-16.228-23.391-13.503l-31.872,8.54    c-10.171,2.727-16.229,13.22-13.503,23.391l43.701,163.099c1.32,4.927,4.482,9.045,8.899,11.596    c2.943,1.699,6.21,2.567,9.519,2.567c1.659,0,3.328-0.218,4.973-0.66l31.871-8.54    C437.064,346.861,443.122,336.368,440.397,326.196z M394.578,331.882l-40.405-150.799l19.573-5.245l40.407,150.798    L394.578,331.882z" fill="#60676c"/>
	</g>
</g>
<g>
	<g>
		<path d="M510.901,434.203l-10.224-38.156c-0.001-0.004-0.001-0.006-0.001-0.009c-0.001-0.003-0.003-0.006-0.003-0.009    L403.75,34.308c-2.201-8.213-7.468-15.077-14.831-19.328c-7.361-4.249-15.941-5.38-24.154-3.179l-84.833,22.731    c-2.772,0.742-5.373,1.862-7.789,3.265c-5.716-8.533-15.443-14.165-26.463-14.165h-87.825c-7.161,0-13.775,2.378-19.099,6.384    c-5.323-4.006-11.938-6.384-19.099-6.384H31.831C14.28,23.632,0,37.912,0,55.464v414.001c0,17.552,14.28,31.831,31.831,31.831    h87.827c7.161,0,13.775-2.378,19.099-6.384c5.323,4.006,11.938,6.384,19.099,6.384h87.825c17.552,0,31.831-14.28,31.831-31.831    V148.484l76.835,286.748c0.001,0.005,0.001,0.009,0.003,0.014c0.001,0.005,0.004,0.01,0.005,0.015l10.222,38.149    c2.199,8.213,7.466,15.078,14.83,19.329c4.906,2.832,10.349,4.278,15.865,4.278c2.764,0,5.548-0.364,8.29-1.099l84.833-22.731    c8.213-2.2,15.078-7.466,19.329-14.83C511.973,450.994,513.101,442.415,510.901,434.203z M126.024,469.465    c0,3.51-2.857,6.366-6.366,6.366H31.831c-3.51,0-6.366-2.856-6.366-6.366v-26.779h100.559V469.465z M126.024,417.221H25.465    V107.708h100.559V417.221z M126.024,82.243H25.465V55.464c0-3.51,2.856-6.366,6.366-6.366h87.827c3.51,0,6.366,2.856,6.366,6.366    V82.243z M252.046,469.465c0,3.51-2.856,6.366-6.366,6.366h-87.825c-3.51,0-6.366-2.856-6.366-6.366v-26.779h100.558V469.465z     M252.047,417.221H151.489V107.708h100.558V417.221z M252.047,82.243H151.489V55.464c0-3.51,2.856-6.366,6.366-6.366h87.825    c3.51,0,6.366,2.856,6.366,6.366V82.243z M282.021,66.925c-0.595-2.215,0.143-3.978,0.635-4.831s1.65-2.371,3.866-2.965    l84.834-22.731c0.55-0.148,1.101-0.218,1.645-0.218c2.811,0,5.39,1.879,6.151,4.719l6.932,25.867l-97.131,26.027L282.021,66.925z     M375.65,416.356L295.543,117.39l97.132-26.027l80.107,298.967L375.65,416.356z M485.668,445.626    c-0.493,0.853-1.65,2.371-3.866,2.965l-84.834,22.731c-2.217,0.593-3.978-0.144-4.831-0.635c-0.853-0.493-2.371-1.65-2.965-3.866    l-6.932-25.867l97.132-26.027l6.932,25.867C486.898,443.01,486.161,444.773,485.668,445.626z" fill="#60676c"/>
	</g>
</g>
<g>
</g>
<g>
</g>
<g>
</g>
<g>
</g>
<g>
</g>
<g>
</g>
<g>
</g>
<g>
</g>
<g>
</g>
<g>
</g>
<g>
</g>
<g>
</g>
<g>
</g>
<g>
</g>
<g>
</g>
</svg>
