<?xml version="1.0" encoding="utf-8"?>
<!-- Generator: Adobe Illustrator 19.1.0, SVG Export Plug-In . SVG Version: 6.00 Build 0)  -->
<svg version="1.1" id="Layer_1" xmlns="http://www.w3.org/2000/svg" xmlns:xlink="http://www.w3.org/1999/xlink" x="0px" y="0px"
	 viewBox="0 0 512 512" style="enable-background:new 0 0 512 512;" xml:space="preserve">
<style type="text/css">
	.st0{fill:#1390A5;}
	.st1{fill:#09BCD4;}
	.st2{fill:#6ECDE2;}
</style>
<path class="st0" d="M383.2,122.3l-250.1,190l-54.9-72.2c-10.3-13.6-7.7-33,5.9-43.4L309.6,25.4c13.6-10.3,33-7.7,43.4,5.9
	l36.2,47.6C399.4,92.6,396.8,112,383.2,122.3z"/>
<path class="st1" d="M369.2,286.1L208.3,408.4l-73.6-96.9l185.6-141l54.9,72.2C385.5,256.3,382.8,275.7,369.2,286.1z"/>
<path class="st2" d="M369.6,439.2l-62.3,47.3c-13.6,10.3-33,7.7-43.4-5.9l-54.9-72.2l111.5-84.8l54.9,72.2
	C385.9,409.5,383.2,428.9,369.6,439.2z"/>
<rect x="765.7" y="143.7" transform="matrix(0.7962 -0.605 0.605 0.7962 67.4375 609.3258)" class="st0" width="345" height="121.7"/>
<rect x="852.3" y="273.6" transform="matrix(0.7962 -0.605 0.605 0.7962 -4.9075 654.3306)" class="st1" width="233.1" height="121.7"/>
<rect x="936.2" y="398.7" transform="matrix(0.7962 -0.605 0.605 0.7962 -72.9406 702.4431)" class="st2" width="140.1" height="121.7"/>
</svg>
